<svg xmlns="http://www.w3.org/2000/svg" xmlns:xlink="http://www.w3.org/1999/xlink" id="processonSvg1000" viewBox="215.01171875 183.76171875 1248.5 982.5" width="1248.5" height="982.5"><defs id="ProcessOnDefs1001"><marker id="ProcessOnMarker1021" markerUnits="userSpaceOnUse" orient="auto" markerWidth="16.23606797749979" markerHeight="10.550836550532098" viewBox="-1.0 -1.3763819204711736 16.23606797749979 10.550836550532098" refX="-1.0" refY="3.8990363547948754"><path id="ProcessOnPath1022" d="M12.0 3.8990363547948754L0.0 7.798072709589751V0.0Z" stroke="#323232" stroke-width="2.0" fill="#323232" transform="matrix(1.0,0.0,0.0,1.0,0.0,0.0)"/></marker><marker id="ProcessOnMarker1050" markerUnits="userSpaceOnUse" orient="auto" markerWidth="16.23606797749979" markerHeight="10.550836550532098" viewBox="-1.0 -1.3763819204711736 16.23606797749979 10.550836550532098" refX="-1.0" refY="3.8990363547948754"><path id="ProcessOnPath1051" d="M12.0 3.8990363547948754L0.0 7.798072709589751V0.0Z" stroke="#323232" stroke-width="2.0" fill="#323232" transform="matrix(1.0,0.0,0.0,1.0,0.0,0.0)"/></marker><marker id="ProcessOnMarker1054" markerUnits="userSpaceOnUse" orient="auto" markerWidth="16.23606797749979" markerHeight="10.550836550532098" viewBox="-1.0 -1.3763819204711736 16.23606797749979 10.550836550532098" refX="-1.0" refY="3.8990363547948754"><path id="ProcessOnPath1055" d="M12.0 3.8990363547948754L0.0 7.798072709589751V0.0Z" stroke="#323232" stroke-width="2.0" fill="#323232" transform="matrix(1.0,0.0,0.0,1.0,0.0,0.0)"/></marker><marker id="ProcessOnMarker1084" markerUnits="userSpaceOnUse" orient="auto" markerWidth="16.23606797749979" markerHeight="10.550836550532098" viewBox="-1.0 -1.3763819204711736 16.23606797749979 10.550836550532098" refX="15.23606797749979" refY="3.8990363547948754"><path id="ProcessOnPath1085" d="M12.0 3.8990363547948754L0.0 7.798072709589751V0.0Z" stroke="#323232" stroke-width="2.0" fill="#323232" transform="matrix(-1.0,1.2246467991473532E-16,-1.2246467991473532E-16,-1.0,14.23606797749979,7.798072709589751)"/></marker><marker id="ProcessOnMarker1100" markerUnits="userSpaceOnUse" orient="auto" markerWidth="16.23606797749979" markerHeight="10.550836550532098" viewBox="-1.0 -1.3763819204711736 16.23606797749979 10.550836550532098" refX="-1.0" refY="3.8990363547948754"><path id="ProcessOnPath1101" d="M12.0 3.8990363547948754L0.0 7.798072709589751V0.0Z" stroke="#323232" stroke-width="2.0" fill="#323232" transform="matrix(1.0,0.0,0.0,1.0,0.0,0.0)"/></marker><marker id="ProcessOnMarker1108" markerUnits="userSpaceOnUse" orient="auto" markerWidth="16.23606797749979" markerHeight="10.550836550532098" viewBox="-1.0 -1.3763819204711736 16.23606797749979 10.550836550532098" refX="-1.0" refY="3.8990363547948754"><path id="ProcessOnPath1109" d="M12.0 3.8990363547948754L0.0 7.798072709589751V0.0Z" stroke="#323232" stroke-width="2.0" fill="#323232" transform="matrix(1.0,0.0,0.0,1.0,0.0,0.0)"/></marker><marker id="ProcessOnMarker1125" markerUnits="userSpaceOnUse" orient="auto" markerWidth="16.23606797749979" markerHeight="10.550836550532098" viewBox="-1.0 -1.3763819204711736 16.23606797749979 10.550836550532098" refX="-1.0" refY="3.8990363547948754"><path id="ProcessOnPath1126" d="M12.0 3.8990363547948754L0.0 7.798072709589751V0.0Z" stroke="#323232" stroke-width="2.0" fill="#323232" transform="matrix(1.0,0.0,0.0,1.0,0.0,0.0)"/></marker></defs><g id="ProcessOnG1002"><path id="ProcessOnPath1003" d="M215.01171875 183.76171875H1463.51171875V1166.26171875H215.01171875V183.76171875Z" fill="none"/><g id="ProcessOnG1004"><g id="ProcessOnG1005" transform="matrix(1.0,0.0,0.0,1.0,417.0138854980469,254.36458015441895)" opacity="1.0"><path id="ProcessOnPath1006" d="M0.0 0.0L802.9978332519531 0.0L802.9978332519531 404.6666622161865L0.0 404.6666622161865Z" stroke="#000000" stroke-width="2.0" stroke-dasharray="none" opacity="1.0" fill="#33ffff"/></g><g id="ProcessOnG1007" transform="matrix(1.0,0.0,0.0,1.0,417.0138854980469,254.36458015441895)" opacity="1.0"><path id="ProcessOnPath1008" d="M0.0 0.0L204.0 0.0L204.0 32.777780532836914L0.0 32.777780532836914Z" stroke="#323232" stroke-width="2.0" stroke-dasharray="none" opacity="1.0" fill="#ffffff"/><g id="ProcessOnG1009" transform="matrix(1.0,0.0,0.0,1.0,10.0,8.263890266418457)"><text id="ProcessOnText1010" fill="#000000" font-size="13" x="91.0" y="13.325" font-family="微软雅黑" font-weight="normal" font-style="normal" text-decoration="none" family="微软雅黑" text-anchor="middle" size="13">PoolManager</text></g></g><g id="ProcessOnG1011" transform="matrix(1.0,0.0,0.0,1.0,658.0138854980469,677.2534790039062)" opacity="1.0"><path id="ProcessOnPath1012" d="M0.0 0.0L555.0 0.0L555.0 270.1111145019531L0.0 270.1111145019531Z" stroke="#323232" stroke-width="2.0" stroke-dasharray="none" opacity="1.0" fill="#ff99cc"/></g><g id="ProcessOnG1013"><path id="ProcessOnPath1014" d="M1188.0138854980469 333.08680152893066L1238.0138854980469 333.08680152893066L1238.0138854980469 812.3090362548828L1213.0138854980469 812.3090362548828" stroke="#323232" stroke-width="4.0" stroke-dasharray="20.0 8.0" fill="none"/></g><g id="ProcessOnG1015" transform="matrix(1.0,0.0,0.0,1.0,480.0138854980469,843.3645935058594)" opacity="1.0"><path id="ProcessOnPath1016" d="M0.0 0.0L130.0 0.0L130.0 57.0L0.0 57.0Z" stroke="#323232" stroke-width="2.0" stroke-dasharray="none" opacity="1.0" fill="#ffffff"/><g id="ProcessOnG1017" transform="matrix(1.0,0.0,0.0,1.0,10.0,20.375)"><text id="ProcessOnText1018" fill="#000000" font-size="13" x="54.0" y="13.325" font-family="微软雅黑" font-weight="normal" font-style="normal" text-decoration="none" family="微软雅黑" text-anchor="middle" size="13">HTTPConnection</text></g></g><g id="ProcessOnG1019"><path id="ProcessOnPath1020" d="M545.0138854980469 900.3645935058594L545.0138854980469 994.3131561279297L545.0138854980469 994.3131561279297L545.0138854980469 1073.0256507725003" stroke="#323232" stroke-width="2.0" stroke-dasharray="none" fill="none" marker-end="url(#ProcessOnMarker1021)"/></g><g id="ProcessOnG1023" transform="matrix(1.0,0.0,0.0,1.0,427.0138854980469,956.0312805175781)" opacity="1.0"><path id="ProcessOnPath1024" d="M0.0 0.0L160.0 0.0L160.0 40.0L0.0 40.0Z" stroke="none" stroke-width="0.0" stroke-dasharray="none" opacity="1.0" fill="none"/><g id="ProcessOnG1025" transform="matrix(1.0,0.0,0.0,1.0,0.0,11.875)"><text id="ProcessOnText1026" fill="#000000" font-size="13" x="79.0" y="13.325" font-family="微软雅黑" font-weight="normal" font-style="normal" text-decoration="none" family="微软雅黑" text-anchor="middle" size="13">发送请求</text></g></g><g id="ProcessOnG1027" transform="matrix(1.0,0.0,0.0,1.0,583.0138854980469,967.0312805175781)" opacity="1.0"><path id="ProcessOnPath1028" d="M0.0 0.0L160.0 0.0L160.0 40.0L0.0 40.0Z" stroke="none" stroke-width="0.0" stroke-dasharray="none" opacity="1.0" fill="none"/><g id="ProcessOnG1029" transform="matrix(1.0,0.0,0.0,1.0,0.0,3.75)"><text id="ProcessOnText1030" fill="#000000" font-size="13" x="79.0" y="13.325" font-family="微软雅黑" font-weight="normal" font-style="normal" text-decoration="none" family="微软雅黑" text-anchor="middle" size="13">将连接归还到 连接池</text><text id="ProcessOnText1031" fill="#000000" font-size="13" x="79.0" y="29.575" font-family="微软雅黑" font-weight="normal" font-style="normal" text-decoration="none" family="微软雅黑" text-anchor="middle" size="13">若连接池满则直接释放</text></g></g><g id="ProcessOnG1032"><path id="ProcessOnPath1033" d="M372.01171875 252.26171875L372.01171875 699.26171875L372.01171875 699.26171875L372.01171875 1146.26171875" stroke="#323232" stroke-width="2.0" stroke-dasharray="none" fill="none"/></g><g id="ProcessOnG1034" transform="matrix(1.0,0.0,0.0,1.0,370.0138854980469,203.76171875)" opacity="1.0"><path id="ProcessOnPath1035" d="M0.0 4.0Q0.0 0.0 4.0 0.0L864.9978332519531 0.0Q868.9978332519531 0.0 868.9978332519531 4.0L868.9978332519531 37.0Q868.9978332519531 41.0 864.9978332519531 41.0L4.0 41.0Q0.0 41.0 0.0 37.0Z" stroke="#323232" stroke-width="2.0" stroke-dasharray="none" opacity="1.0" fill="#ffffff"/><g id="ProcessOnG1036" transform="matrix(1.0,0.0,0.0,1.0,10.0,5.5)"><text id="ProcessOnText1037" fill="#000000" font-size="24" x="423.49891662597656" y="24.6" font-family="Arial" font-weight="normal" font-style="normal" text-decoration="none" family="Arial" text-anchor="middle" size="24">urllib3 内部</text></g></g><g id="ProcessOnG1038" transform="matrix(1.0,0.0,0.0,1.0,729.01171875,753.3645935058594)" opacity="1.0"><path id="ProcessOnPath1039" d="M0.0 4.0Q0.0 0.0 4.0 0.0L474.0 0.0Q478.0 0.0 478.0 4.0L478.0 120.0Q478.0 124.0 474.0 124.0L4.0 124.0Q0.0 124.0 0.0 120.0Z" stroke="#323232" stroke-width="2.0" stroke-dasharray="none" opacity="1.0" fill="#ffffff"/></g><g id="ProcessOnG1040" transform="matrix(1.0,0.0,0.0,1.0,822.5138854980469,809.8090362548828)" opacity="1.0"><path id="ProcessOnPath1041" d="M0.0 0.0L130.0 0.0L130.0 57.0L0.0 57.0Z" stroke="#323232" stroke-width="2.0" stroke-dasharray="none" opacity="1.0" fill="#ffffff"/><g id="ProcessOnG1042" transform="matrix(1.0,0.0,0.0,1.0,10.0,20.375)"><text id="ProcessOnText1043" fill="#000000" font-size="13" x="54.0" y="13.325" font-family="微软雅黑" font-weight="normal" font-style="normal" text-decoration="none" family="微软雅黑" text-anchor="middle" size="13">HTTPConnection</text></g></g><g id="ProcessOnG1044" transform="matrix(1.0,0.0,0.0,1.0,989.0138854980469,809.8090362548828)" opacity="1.0"><path id="ProcessOnPath1045" d="M0.0 0.0L130.0 0.0L130.0 57.0L0.0 57.0Z" stroke="#323232" stroke-width="2.0" stroke-dasharray="none" opacity="1.0" fill="#ffffff"/><g id="ProcessOnG1046" transform="matrix(1.0,0.0,0.0,1.0,10.0,20.375)"><text id="ProcessOnText1047" fill="#000000" font-size="13" x="54.0" y="13.325" font-family="微软雅黑" font-weight="normal" font-style="normal" text-decoration="none" family="微软雅黑" text-anchor="middle" size="13">HTTPConnection</text></g></g><g id="ProcessOnG1048"><path id="ProcessOnPath1049" d="M566.01171875 1088.26171875L566.01171875 965.6464996337891L788.0138854980469 965.6464996337891L788.0138854980469 858.267348495078" stroke="#323232" stroke-width="2.0" stroke-dasharray="none" fill="none" marker-end="url(#ProcessOnMarker1050)"/></g><g id="ProcessOnG1052"><path id="ProcessOnPath1053" d="M775.01171875 798.26171875L545.0138854980469 798.26171875L545.0138854980469 828.1285255283595" stroke="#323232" stroke-width="2.0" stroke-dasharray="none" fill="none" marker-end="url(#ProcessOnMarker1054)"/></g><g id="ProcessOnG1056" transform="matrix(1.0,0.0,0.0,1.0,508.01171875,746.51171875)" opacity="1.0"><path id="ProcessOnPath1057" d="M0.0 0.0L173.0 0.0L173.0 51.75L0.0 51.75Z" stroke="none" stroke-width="0.0" stroke-dasharray="none" opacity="1.0" fill="none"/><g id="ProcessOnG1058" transform="matrix(1.0,0.0,0.0,1.0,0.0,1.5)"><text id="ProcessOnText1059" fill="#000000" font-size="13" x="85.5" y="13.325" font-family="微软雅黑" font-weight="normal" font-style="normal" text-decoration="none" family="微软雅黑" text-anchor="middle" size="13">取出空闲连接</text><text id="ProcessOnText1060" fill="#000000" font-size="13" x="85.5" y="29.575" font-family="微软雅黑" font-weight="normal" font-style="normal" text-decoration="none" family="微软雅黑" text-anchor="middle" size="13">若无，则创建一个新的</text><text id="ProcessOnText1061" fill="#000000" font-size="13" x="85.5" y="45.825" font-family="微软雅黑" font-weight="normal" font-style="normal" text-decoration="none" family="微软雅黑" text-anchor="middle" size="13">HTTPConnnection</text></g></g><g id="ProcessOnG1062" transform="matrix(1.0,0.0,0.0,1.0,639.01171875,284.14236068725586)" opacity="1.0"><path id="ProcessOnPath1063" d="M0.0 4.0Q0.0 0.0 4.0 0.0L560.0 0.0Q564.0 0.0 564.0 4.0L564.0 291.11935806274414Q564.0 295.11935806274414 560.0 295.11935806274414L4.0 295.11935806274414Q0.0 295.11935806274414 0.0 291.11935806274414Z" stroke="#323232" stroke-width="2.0" stroke-dasharray="none" opacity="1.0" fill="#ffffff"/></g><g id="ProcessOnG1064" transform="matrix(1.0,0.0,0.0,1.0,649.01171875,320.03124237060547)" opacity="1.0"><path id="ProcessOnPath1065" d="M0.0 0.0L257.0 0.0L257.0 34.11111831665039L0.0 34.11111831665039Z" stroke="none" stroke-width="0.0" stroke-dasharray="none" opacity="1.0" fill="none"/><g id="ProcessOnG1066" transform="matrix(1.0,0.0,0.0,1.0,0.0,0.8055591583251953)"><text id="ProcessOnText1067" fill="#000000" font-size="13" x="127.5" y="13.325" font-family="微软雅黑" font-weight="normal" font-style="normal" text-decoration="none" family="微软雅黑" text-anchor="middle" size="13">PoolKey(key_scheme='http', key_host='w</text><text id="ProcessOnText1068" fill="#000000" font-size="13" x="127.5" y="29.575" font-family="微软雅黑" font-weight="normal" font-style="normal" text-decoration="none" family="微软雅黑" text-anchor="middle" size="13">ww.httpbin.org', key_port=80, ...)</text></g></g><g id="ProcessOnG1069" transform="matrix(1.0,0.0,0.0,1.0,1035.0138854980469,309.03124237060547)" opacity="1.0"><path id="ProcessOnPath1070" d="M0.0 0.0L153.0 0.0L153.0 48.11111831665039L0.0 48.11111831665039Z" stroke="#323232" stroke-width="2.0" stroke-dasharray="none" opacity="1.0" fill="#ffffff"/><g id="ProcessOnG1071" transform="matrix(1.0,0.0,0.0,1.0,10.0,15.930559158325195)"><text id="ProcessOnText1072" fill="#000000" font-size="13" x="65.5" y="13.325" font-family="微软雅黑" font-weight="normal" font-style="normal" text-decoration="none" family="微软雅黑" text-anchor="middle" size="13">HTTPConnectionPool</text></g></g><g id="ProcessOnG1073" transform="matrix(1.0,0.0,0.0,1.0,1035.0138854980469,465.75346183776855)" opacity="1.0"><path id="ProcessOnPath1074" d="M0.0 0.0L153.0 0.0L153.0 48.11111831665039L0.0 48.11111831665039Z" stroke="#323232" stroke-width="2.0" stroke-dasharray="none" opacity="1.0" fill="#ffffff"/><g id="ProcessOnG1075" transform="matrix(1.0,0.0,0.0,1.0,10.0,15.930559158325195)"><text id="ProcessOnText1076" fill="#000000" font-size="13" x="65.5" y="13.325" font-family="微软雅黑" font-weight="normal" font-style="normal" text-decoration="none" family="微软雅黑" text-anchor="middle" size="13">HTTPConnectionPool</text></g></g><g id="ProcessOnG1077" transform="matrix(1.0,0.0,0.0,1.0,1035.0138854980469,387.75346183776855)" opacity="1.0"><path id="ProcessOnPath1078" d="M0.0 0.0L153.0 0.0L153.0 48.11111831665039L0.0 48.11111831665039Z" stroke="#323232" stroke-width="2.0" stroke-dasharray="none" opacity="1.0" fill="#ffffff"/><g id="ProcessOnG1079" transform="matrix(1.0,0.0,0.0,1.0,10.0,7.805559158325195)"><text id="ProcessOnText1080" fill="#000000" font-size="13" x="65.5" y="13.325" font-family="微软雅黑" font-weight="normal" font-style="normal" text-decoration="none" family="微软雅黑" text-anchor="middle" size="13">HTTPSConnectionPo</text><text id="ProcessOnText1081" fill="#000000" font-size="13" x="65.5" y="29.575" font-family="微软雅黑" font-weight="normal" font-style="normal" text-decoration="none" family="微软雅黑" text-anchor="middle" size="13">ol</text></g></g><g id="ProcessOnG1082"><path id="ProcessOnPath1083" d="M1006.7756507725002 335.26171875L972.01171875 335.26171875L972.01171875 335.26171875L922.01171875 335.26171875" stroke="#323232" stroke-width="2.0" stroke-dasharray="none" fill="none" marker-start="url(#ProcessOnMarker1084)"/></g><g id="ProcessOnG1086" transform="matrix(1.0,0.0,0.0,1.0,639.01171875,548.26171875)" opacity="1.0"><path id="ProcessOnPath1087" d="M0.0 0.0L321.0 0.0L321.0 31.0L0.0 31.0Z" stroke="#323232" stroke-width="2.0" stroke-dasharray="none" opacity="1.0" fill="#ffffff"/><g id="ProcessOnG1088" transform="matrix(1.0,0.0,0.0,1.0,10.0,4.25)"><text id="ProcessOnText1089" fill="#000000" font-size="18" x="149.5" y="18.45" font-family="Arial" font-weight="normal" font-style="normal" text-decoration="none" family="Arial" text-anchor="middle" size="18">pools # type: RecentlyUsedContainer</text></g></g><g id="ProcessOnG1090" transform="matrix(1.0,0.0,0.0,1.0,975.01171875,753.3645935058594)" opacity="1.0"><path id="ProcessOnPath1091" d="M0.0 4.0Q0.0 0.0 4.0 0.0L228.0 0.0Q232.0 0.0 232.0 4.0L232.0 26.897125244140625Q232.0 30.897125244140625 228.0 30.897125244140625L4.0 30.897125244140625Q0.0 30.897125244140625 0.0 26.897125244140625Z" stroke="#323232" stroke-width="2.0" stroke-dasharray="none" opacity="1.0" fill="#ffffff"/><g id="ProcessOnG1092" transform="matrix(1.0,0.0,0.0,1.0,10.0,4.1985626220703125)"><text id="ProcessOnText1093" fill="#000000" font-size="18" x="105.0" y="18.45" font-family="Arial" font-weight="normal" font-style="normal" text-decoration="none" family="Arial" text-anchor="middle" size="18">pool  # type LIFOQueue</text></g></g><g id="ProcessOnG1094" transform="matrix(1.0,0.0,0.0,1.0,310.0138854980469,1068.26171875)" opacity="1.0"><path id="ProcessOnPath1095" d="M0.0 0.0L153.0 0.0L153.0 56.0L0.0 56.0Z" stroke="#323232" stroke-width="2.0" stroke-dasharray="none" opacity="1.0" fill="#ffffff"/><g id="ProcessOnG1096" transform="matrix(1.0,0.0,0.0,1.0,10.0,19.875)"><text id="ProcessOnText1097" fill="#000000" font-size="13" x="65.5" y="13.325" font-family="微软雅黑" font-weight="normal" font-style="normal" text-decoration="none" family="微软雅黑" text-anchor="middle" size="13">HTTPResponse</text></g></g><g id="ProcessOnG1098"><path id="ProcessOnPath1099" d="M235.01171875 447.01171875L411.01280212402344 447.01171875L411.01280212402344 447.01171875L571.777817520547 447.01171875" stroke="#323232" stroke-width="2.0" stroke-dasharray="none" fill="none" marker-end="url(#ProcessOnMarker1100)"/></g><g id="ProcessOnG1102" transform="matrix(1.0,0.0,0.0,1.0,248.01388549804688,410.75346183776855)" opacity="1.0"><path id="ProcessOnPath1103" d="M0.0 0.0L160.0 0.0L160.0 40.0L0.0 40.0Z" stroke="none" stroke-width="0.0" stroke-dasharray="none" opacity="1.0" fill="none"/><g id="ProcessOnG1104" transform="matrix(1.0,0.0,0.0,1.0,0.0,11.875)"><text id="ProcessOnText1105" fill="#000000" font-size="13" x="79.0" y="13.325" font-family="微软雅黑" font-weight="normal" font-style="normal" text-decoration="none" family="微软雅黑" text-anchor="middle" size="13">新的请求</text></g></g><g id="ProcessOnG1106"><path id="ProcessOnPath1107" d="M537.01171875 1080.01171875L504.51171875 1080.01171875L504.51171875 1080.01171875L487.2477867274998 1080.01171875" stroke="#323232" stroke-width="2.0" stroke-dasharray="none" fill="none" marker-end="url(#ProcessOnMarker1108)"/></g><g id="ProcessOnG1110" transform="matrix(1.0,0.0,0.0,1.0,427.0138854980469,1084.26171875)" opacity="1.0"><path id="ProcessOnPath1111" d="M0.0 0.0L160.0 0.0L160.0 40.0L0.0 40.0Z" stroke="none" stroke-width="0.0" stroke-dasharray="none" opacity="1.0" fill="none"/><g id="ProcessOnG1112" transform="matrix(1.0,0.0,0.0,1.0,0.0,11.875)"><text id="ProcessOnText1113" fill="#000000" font-size="13" x="79.0" y="13.325" font-family="微软雅黑" font-weight="normal" font-style="normal" text-decoration="none" family="微软雅黑" text-anchor="middle" size="13">生成响应</text></g></g><g id="ProcessOnG1114" transform="matrix(1.0,0.0,0.0,1.0,870.01171875,342.75346183776855)" opacity="1.0"><path id="ProcessOnPath1115" d="M0.0 0.0L189.0 0.0L189.0 50.0L0.0 50.0Z" stroke="none" stroke-width="0.0" stroke-dasharray="none" opacity="1.0" fill="none"/><g id="ProcessOnG1116" transform="matrix(1.0,0.0,0.0,1.0,0.0,8.75)"><text id="ProcessOnText1117" fill="#000000" font-size="13" x="93.5" y="13.325" font-family="微软雅黑" font-weight="normal" font-style="normal" text-decoration="none" family="微软雅黑" text-anchor="middle" size="13">匹配连接池</text><text id="ProcessOnText1118" fill="#000000" font-size="13" x="93.5" y="29.575" font-family="微软雅黑" font-weight="normal" font-style="normal" text-decoration="none" family="微软雅黑" text-anchor="middle" size="13">未匹配则创建新的连接池</text></g></g><g id="ProcessOnG1119" transform="matrix(1.0,0.0,0.0,1.0,1290.51171875,513.864580154419)" opacity="1.0"><path id="ProcessOnPath1120" d="M0.0 0.0L153.0 0.0L153.0 48.11111831665039L0.0 48.11111831665039Z" stroke="#323232" stroke-width="2.0" stroke-dasharray="none" opacity="1.0" fill="#ffffff"/><g id="ProcessOnG1121" transform="matrix(1.0,0.0,0.0,1.0,10.0,15.930559158325195)"><text id="ProcessOnText1122" fill="#000000" font-size="13" x="65.5" y="13.325" font-family="微软雅黑" font-weight="normal" font-style="normal" text-decoration="none" family="微软雅黑" text-anchor="middle" size="13">HTTPConnectionPool</text></g></g><g id="ProcessOnG1123"><path id="ProcessOnPath1124" d="M1060.01171875 538.864580154419L1172.01171875 538.864580154419L1172.01171875 538.864580154419L1268.7756507725003 538.864580154419" stroke="#323232" stroke-width="2.0" stroke-dasharray="none" fill="none" marker-end="url(#ProcessOnMarker1125)"/></g><g id="ProcessOnG1127" transform="matrix(1.0,0.0,0.0,1.0,996.01171875,539.26171875)" opacity="1.0"><path id="ProcessOnPath1128" d="M0.0 0.0L196.0 0.0L196.0 44.0L0.0 44.0Z" stroke="none" stroke-width="0.0" stroke-dasharray="none" opacity="1.0" fill="none"/><g id="ProcessOnG1129" transform="matrix(1.0,0.0,0.0,1.0,0.0,5.75)"><text id="ProcessOnText1130" fill="#000000" font-size="13" x="97.0" y="13.325" font-family="微软雅黑" font-weight="normal" font-style="normal" text-decoration="none" family="微软雅黑" text-anchor="middle" size="13">维护的连接池数目达到上限</text><text id="ProcessOnText1131" fill="#000000" font-size="13" x="97.0" y="29.575" font-family="微软雅黑" font-weight="normal" font-style="normal" text-decoration="none" family="微软雅黑" text-anchor="middle" size="13">释放最久未被使用的连接池</text></g></g></g></g></svg>